<svg width="32" height="32" viewBox="0 0 32 32" fill="none" xmlns="http://www.w3.org/2000/svg">
<path d="M15.6666 4.66663C22.4782 4.66663 28 9.44226 28 15.3333C28 21.2243 22.4782 26 15.6666 26C14.5015 26 13.3741 25.8602 12.3057 25.5991C10.9064 26.845 8.57044 27.8783 5.3001 28.698C5.15901 28.7334 5.00974 28.7136 4.88274 28.6427C4.60725 28.4889 4.50859 28.1409 4.66238 27.8654L4.90011 27.4331C5.95034 25.4955 6.57936 23.9286 6.78716 22.7323C4.64793 20.8166 3.33331 18.2077 3.33331 15.3333C3.33331 9.44226 8.85513 4.66663 15.6666 4.66663Z" fill="currentColor"/>
</svg>
