<svg width="17" height="15" viewBox="0 0 17 15" fill="none" xmlns="http://www.w3.org/2000/svg">
<path d="M1.59976 6.52698C5.89553 4.55143 8.75939 3.24891 10.1913 2.61964C14.2845 0.822746 15.134 0.510665 15.6888 0.500092C15.8108 0.498026 16.0825 0.529866 16.2597 0.681167C16.4071 0.80877 16.4485 0.981339 16.4692 1.1025C16.4876 1.22354 16.513 1.49941 16.4922 1.71475C16.2712 4.17446 15.3113 10.1434 14.8232 12.8984C14.6183 14.0641 14.2108 14.4549 13.8172 14.4931C12.9608 14.5762 12.3116 13.8961 11.4828 13.3228C10.1867 12.4252 9.45463 11.8666 8.19536 10.9909C6.74042 9.97882 7.68429 9.42247 8.51306 8.51345C8.72946 8.2755 12.5003 4.65522 12.5717 4.32685C12.5809 4.28578 12.5901 4.13265 12.5027 4.05196C12.4175 3.97102 12.2909 3.99873 12.1988 4.0206C12.0675 4.05172 9.99793 5.4974 5.98301 8.35741C5.39597 8.78373 4.86418 8.99154 4.38534 8.9806C3.86045 8.96869 2.84751 8.66658 2.09472 8.40845C1.17386 8.09176 0.439483 7.92429 0.503942 7.38641C0.536172 7.10642 0.902211 6.81986 1.59976 6.52698Z" fill="currentColor"/>
</svg>
