<svg width="180" height="190" viewBox="0 0 180 190" fill="none" xmlns="http://www.w3.org/2000/svg">
<path d="M85.8058 24.6321C92.2082 19.2968 100.278 16.375 108.612 16.375H117.082C127.904 16.375 138.14 21.2944 144.901 29.7452L158.24 46.42C164.276 53.9649 165.374 64.3307 161.053 72.9729C160.115 74.8504 159.626 76.9207 159.626 79.0199V85.3448C159.626 94.5515 154.795 103.083 146.901 107.82L146.705 107.937C139.804 112.078 131.365 112.754 123.893 109.765C119.599 108.048 114.744 108.481 110.823 110.932L100.796 117.199C100.611 117.314 100.426 117.428 100.24 117.539C97.8486 120.72 96.0834 123.813 95.2051 126.654C95.026 127.233 94.7619 127.762 94.4308 128.232C94.5929 129.34 94.736 130.441 94.8625 131.526C95.5066 137.057 95.7518 142.55 95.7599 147.376C97.467 149.369 100.149 151.981 103.447 154.224C107.515 156.991 112.039 158.875 116.502 158.875C119.608 158.875 122.127 161.393 122.127 164.5C122.127 167.607 119.608 170.125 116.502 170.125C108.965 170.125 102.239 167.009 97.1191 163.526C95.8791 162.682 94.7051 161.798 93.6062 160.901C92.4982 161.913 90.9903 162.482 89.3762 162.356C88.2766 162.27 87.2755 161.874 86.4524 161.26C85.4832 162.034 84.4586 162.795 83.3843 163.526C78.2646 167.009 71.5385 170.125 64.0017 170.125C60.8951 170.125 58.3767 167.607 58.3767 164.5C58.3767 161.393 60.8951 158.875 64.0017 158.875C68.4649 158.875 72.9888 156.991 77.0566 154.224C80.2078 152.08 82.7968 149.6 84.5101 147.645C84.5108 143.158 84.2903 137.999 83.688 132.828C83.4851 131.086 83.2427 129.379 82.9595 127.723C79.4089 125.515 75.3173 123.043 70.8913 120.89L67.9281 120.044C63.6641 118.825 59.0803 119.541 55.3905 122.001C39.7392 132.435 18.563 123.493 14.8911 105.133C13.7389 99.3718 14.5318 93.3603 17.1653 88.0934L20.7719 80.8801C22.7801 76.8637 22.7801 72.1363 20.7719 68.1199C18.2343 63.0448 17.4608 57.2685 18.5736 51.7045L18.7813 50.6663C20.5122 42.0114 26.1421 34.6404 34.0366 30.6932L35.5339 29.9446C43.9646 25.7292 53.8409 25.4544 62.494 29.1629C69.7259 32.2623 78.1062 31.0485 84.1384 26.0216L85.8058 24.6321Z" fill="#EBEBEB"/>
</svg>
