<svg width="180" height="190" viewBox="0 0 180 190" fill="none" xmlns="http://www.w3.org/2000/svg">
<path d="M180 124.922C180 177.388 129.605 190 92.6419 190C55.6788 190 0 177.388 0 124.922C0 72.4551 30.2935 0.375448 92.6419 0.00143478C154.99 -0.372578 180 72.4551 180 124.922Z" fill="#EBEBEB"/>
<rect x="66.3823" y="94.3823" width="48.0342" height="87.2354" rx="9.52183" fill="white" stroke="#EBEBEB" stroke-width="2.76458" stroke-linecap="round"/>
<path d="M67.7407 150.648V122.751H116C112.365 137.056 90.6924 151.42 67.7407 150.648Z" fill="#7E7E7E" fill-opacity="0.05"/>
<path d="M60.3236 90.9237C60.3236 98.7967 52.9136 105.497 43.3529 105.497C33.7923 105.497 26.3823 98.7967 26.3823 90.9237C26.3823 83.0506 33.7923 76.3507 43.3529 76.3507C52.9136 76.3507 60.3236 83.0506 60.3236 90.9237Z" fill="white" stroke="#EBEBEB" stroke-width="2.76458"/>
<path d="M121.676 90.9237C121.676 98.7967 129.086 105.497 138.647 105.497C148.208 105.497 155.618 98.7967 155.618 90.9237C155.618 83.0506 148.208 76.3507 138.647 76.3507C129.086 76.3507 121.676 83.0506 121.676 90.9237Z" fill="white" stroke="#EBEBEB" stroke-width="2.76458"/>
<path d="M135.583 85.4269C135.583 100.944 131.465 112.777 123.824 120.727C116.19 128.669 104.85 132.935 89.9884 132.935C75.1262 132.935 63.5949 128.669 55.7757 120.716C47.9533 112.761 43.6609 100.929 43.6609 85.4269C43.6609 69.9053 47.9679 53.7155 55.9487 41.4478C63.919 29.1963 75.4599 20.9698 89.9884 20.9698C104.511 20.9698 115.866 29.1898 123.654 41.4357C131.454 53.7012 135.583 69.8939 135.583 85.4269Z" fill="white" stroke="#EBEBEB" stroke-width="2.76458" stroke-linecap="round"/>
<path d="M89.9677 84.5551C88.6056 89.2629 87.8943 91.7228 87.8943 96.6208C89.7186 97.4934 91.4629 97.7115 94.4602 97.6868" stroke="#EBEBEB" stroke-width="2.76458" stroke-linecap="round" stroke-linejoin="round"/>
<path d="M65.6169 92.3133C67.0417 92.3133 68.3053 91.5425 69.2008 90.3484C70.0963 89.1545 70.6399 87.5209 70.6399 85.7311C70.6399 83.9414 70.0963 82.3078 69.2008 81.1139C68.3053 79.9198 67.0417 79.149 65.6169 79.149C64.1921 79.149 62.9285 79.9198 62.033 81.1139C61.1375 82.3078 60.5939 83.9414 60.5939 85.7311C60.5939 87.5209 61.1375 89.1545 62.033 90.3484C62.9285 91.5425 64.1921 92.3133 65.6169 92.3133Z" fill="#EBEBEB" stroke="#EBEBEB" stroke-width="0.691145" stroke-linecap="round"/>
<circle cx="67.5857" cy="84.2003" r="1.72786" fill="white" stroke="#EBEBEB" stroke-width="0.691145"/>
<path d="M115.379 92.3133C116.804 92.3133 118.068 91.5425 118.963 90.3484C119.859 89.1544 120.402 87.5208 120.402 85.7311C120.402 83.9414 119.859 82.3078 118.963 81.1138C118.068 79.9198 116.804 79.1489 115.379 79.1489C113.955 79.1489 112.691 79.9198 111.795 81.1138C110.9 82.3078 110.356 83.9414 110.356 85.7311C110.356 87.5208 110.9 89.1544 111.795 90.3484C112.691 91.5425 113.955 92.3133 115.379 92.3133Z" fill="#EBEBEB" stroke="#EBEBEB" stroke-width="0.691145" stroke-linecap="round"/>
<circle cx="117.348" cy="84.2002" r="1.38229" fill="white"/>
<path d="M84.4385 108.4C86.5119 110.934 91.9028 114.482 96.8791 108.4" stroke="#EBEBEB" stroke-width="2.76458" stroke-linecap="round" stroke-linejoin="round"/>
<path d="M100.925 40.2326C85.5969 68.8285 72.9609 75.1419 39.8956 78C33.2315 34.5 43.8666 25.2629 93.5598 17.9767C133.996 30.9397 135.031 43.3437 136 78C111.751 71.3563 109.584 61.6808 100.925 40.2326Z" fill="#EBEBEB"/>
</svg>
