<svg width="32" height="32" viewBox="0 0 32 32" fill="none" xmlns="http://www.w3.org/2000/svg">
<path d="M18.8156 20.3453C20.6211 18.5396 23.4636 18.3732 25.3537 19.9622L26.7194 21.1128C28.278 22.4245 28.4365 24.7889 27.0707 26.3925C26.3259 27.2542 25.2775 27.7955 24.1438 27.9037C19.7798 28.4915 15.2018 26.3886 10.4072 21.5936C5.61257 16.7986 3.50849 12.2189 4.09626 7.85588C4.1268 7.5145 4.19774 7.17795 4.30759 6.85329C4.56176 6.10747 5.01044 5.44306 5.60728 4.92868C7.21209 3.56416 9.57505 3.72135 10.8866 5.28137L12.0358 6.64722C13.6273 8.53483 13.4622 11.3788 11.6567 13.1845L10.6766 14.1633C10.4153 14.4251 10.3298 14.8148 10.4574 15.162C10.814 16.1368 11.724 17.3547 13.1849 18.8157C14.647 20.2779 15.8648 21.1867 16.8383 21.5447C17.1857 21.672 17.5754 21.5859 17.8368 21.3241L18.8156 20.3453Z" fill="currentColor"/>
</svg>
