<svg width="24" height="24" viewBox="0 0 24 24" fill="none" xmlns="http://www.w3.org/2000/svg">
<g clip-path="url(#clip0_177_4725)">
<path d="M5.26339 5.2636C5.61486 4.91213 6.18471 4.91213 6.53618 5.26361L11.9998 10.7272L17.4634 5.26363C17.8149 4.91216 18.3847 4.91216 18.7362 5.26363C19.0876 5.6151 19.0876 6.18495 18.7362 6.53642L13.2726 12L18.7362 17.4636C19.0876 17.8151 19.0876 18.385 18.7362 18.7364C18.3847 19.0879 17.8148 19.0879 17.4634 18.7364L11.9998 13.2728L6.53615 18.7364C6.18468 19.0879 5.61483 19.0879 5.26336 18.7364C4.91189 18.3849 4.91189 17.8151 5.26336 17.4636L10.727 12L5.26338 6.53639C4.91191 6.18492 4.91191 5.61507 5.26339 5.2636Z" fill="currentColor"/>
</g>
<defs>
<clipPath id="clip0_177_4725">
<rect width="24" height="24" fill="white"/>
</clipPath>
</defs>
</svg>
