<svg width="462" height="331" viewBox="0 0 462 331" fill="none" xmlns="http://www.w3.org/2000/svg">
<g clip-path="url(#clip0_3_33695)">
<path d="M450.707 57.7433L358.46 3.31087C351.264 -0.934637 342.398 -0.934637 335.201 3.31087L240.346 59.2816C234.768 62.5781 227.892 62.5781 222.314 59.2816L127.459 3.31087C120.262 -0.934637 111.397 -0.934637 104.2 3.31087L11.9633 57.7433C4.76671 61.9888 0.328796 69.8405 0.328796 78.3315V187.196C0.328796 195.687 4.76671 203.539 11.9633 207.784L212.999 326.159C224.353 332.852 238.337 332.852 249.681 326.159L450.717 207.784C457.913 203.539 462.351 195.687 462.351 187.196V78.3315C462.341 69.8405 457.903 61.9888 450.707 57.7433Z" fill="#83BB21"/>
<path d="M110.957 124.233H126.16V140.336H120.332V128.498H116.774V140.336H110.947V124.233H110.957Z" fill="white"/>
<path d="M131.817 139.826C130.478 139.217 129.428 138.278 128.668 137.009C127.909 135.741 127.529 134.162 127.529 132.264C127.529 130.356 127.919 128.768 128.698 127.509C129.478 126.251 130.538 125.322 131.877 124.722C133.216 124.123 134.746 123.833 136.455 123.833C138.174 123.833 139.703 124.123 141.043 124.712C142.382 125.302 143.441 126.221 144.221 127.479C145.001 128.738 145.391 130.326 145.391 132.264C145.391 134.162 145.011 135.751 144.251 137.009C143.491 138.278 142.442 139.217 141.103 139.826C139.763 140.436 138.214 140.745 136.465 140.745C134.706 140.735 133.156 140.436 131.817 139.826ZM138.034 136.4C138.424 135.98 138.694 135.421 138.854 134.712C139.014 134.013 139.093 133.183 139.093 132.254C139.093 131.325 139.014 130.516 138.854 129.817C138.694 129.118 138.424 128.568 138.034 128.149C137.644 127.729 137.124 127.529 136.465 127.529C135.495 127.529 134.816 127.959 134.426 128.808C134.036 129.657 133.836 130.806 133.836 132.254C133.836 133.193 133.916 134.013 134.076 134.712C134.236 135.411 134.506 135.98 134.895 136.4C135.285 136.82 135.805 137.029 136.465 137.029C137.124 137.029 137.644 136.82 138.034 136.4Z" fill="white"/>
<path d="M146.08 136.07H147.43C147.889 135.441 148.229 134.602 148.439 133.563C148.649 132.514 148.759 131.156 148.769 129.477C148.769 129.357 148.769 129.238 148.769 129.118V124.233H162.892V136.07H164.921V143.053H159.844V140.336H151.158V143.053H146.08V136.07ZM157.075 136.07V128.498H154.306V129.198C154.306 130.886 154.226 132.284 154.066 133.383C153.907 134.482 153.667 135.381 153.347 136.07H157.075Z" fill="white"/>
<path d="M166.301 124.233H173.527C174.967 124.233 176.196 124.403 177.226 124.752C178.255 125.102 179.065 125.671 179.644 126.461C180.224 127.25 180.514 128.289 180.514 129.577C180.514 130.936 180.234 132.035 179.664 132.874C179.095 133.713 178.305 134.322 177.296 134.692C176.286 135.061 175.077 135.251 173.677 135.251H172.118V140.336H166.291V124.233H166.301ZM174.207 131.196C174.567 130.856 174.747 130.346 174.747 129.647C174.747 129.188 174.667 128.828 174.497 128.548C174.327 128.269 174.097 128.069 173.797 127.949C173.497 127.829 173.127 127.769 172.698 127.769H172.128V131.715H172.708C173.337 131.695 173.837 131.535 174.207 131.196Z" fill="white"/>
<path d="M185.452 139.826C184.112 139.217 183.063 138.278 182.303 137.009C181.544 135.741 181.164 134.162 181.164 132.264C181.164 130.356 181.554 128.768 182.333 127.509C183.113 126.251 184.172 125.322 185.512 124.722C186.851 124.123 188.38 123.833 190.089 123.833C191.809 123.833 193.338 124.123 194.677 124.712C196.017 125.302 197.076 126.221 197.856 127.479C198.635 128.738 199.025 130.326 199.025 132.264C199.025 134.162 198.645 135.751 197.886 137.009C197.126 138.278 196.077 139.217 194.737 139.826C193.398 140.436 191.849 140.745 190.099 140.745C188.34 140.735 186.791 140.436 185.452 139.826ZM191.669 136.4C192.059 135.98 192.328 135.421 192.488 134.712C192.648 134.013 192.728 133.183 192.728 132.254C192.728 131.325 192.648 130.516 192.488 129.817C192.328 129.118 192.059 128.568 191.669 128.149C191.279 127.729 190.759 127.529 190.099 127.529C189.13 127.529 188.45 127.959 188.06 128.808C187.671 129.657 187.471 130.806 187.471 132.254C187.471 133.193 187.551 134.013 187.711 134.712C187.871 135.411 188.14 135.98 188.53 136.4C188.92 136.82 189.44 137.029 190.099 137.029C190.759 137.029 191.279 136.82 191.669 136.4Z" fill="white"/>
<path d="M200.385 124.233H206.212V130.466H208.751C210.03 130.466 211.14 130.626 212.059 130.936C212.979 131.245 213.698 131.765 214.218 132.464C214.738 133.163 214.988 134.102 214.988 135.241C214.988 136.45 214.738 137.439 214.228 138.188C213.718 138.937 213.019 139.487 212.109 139.826C211.2 140.166 210.13 140.336 208.881 140.336H200.375V124.233H200.385ZM200.385 124.233H213.688V128.498H200.385V124.233ZM208.791 136.44C209.081 136.21 209.221 135.841 209.221 135.351C209.221 135.041 209.161 134.782 209.031 134.572C208.901 134.372 208.721 134.222 208.491 134.132C208.261 134.043 207.981 133.993 207.671 133.993H206.222V136.79H207.591C208.101 136.79 208.511 136.67 208.791 136.44Z" fill="white"/>
<path d="M216.157 124.233H221.984V129.967H225.793V124.233H231.62V140.336H225.793V134.242H221.984V140.336H216.157V124.233Z" fill="white"/>
<path d="M237.267 139.826C235.928 139.217 234.878 138.278 234.119 137.009C233.359 135.741 232.979 134.162 232.979 132.264C232.979 130.356 233.369 128.768 234.149 127.509C234.928 126.251 235.988 125.322 237.327 124.722C238.667 124.123 240.196 123.833 241.905 123.833C243.624 123.833 245.154 124.123 246.493 124.712C247.832 125.302 248.892 126.221 249.671 127.479C250.451 128.738 250.841 130.326 250.841 132.264C250.841 134.162 250.461 135.751 249.701 137.009C248.942 138.278 247.892 139.217 246.553 139.826C245.214 140.436 243.664 140.745 241.915 140.745C240.146 140.735 238.597 140.436 237.267 139.826ZM243.474 136.4C243.864 135.98 244.134 135.421 244.294 134.712C244.454 134.013 244.534 133.183 244.534 132.254C244.534 131.325 244.454 130.516 244.294 129.817C244.134 129.118 243.864 128.568 243.474 128.149C243.085 127.729 242.565 127.529 241.905 127.529C240.936 127.529 240.256 127.959 239.866 128.808C239.476 129.657 239.276 130.806 239.276 132.254C239.276 133.193 239.356 134.013 239.516 134.712C239.676 135.411 239.946 135.98 240.336 136.4C240.726 136.82 241.245 137.029 241.905 137.029C242.565 137.029 243.085 136.82 243.474 136.4Z" fill="white"/>
<path d="M255.739 139.816C254.459 139.197 253.48 138.258 252.78 136.999C252.08 135.741 251.73 134.162 251.73 132.264C251.73 130.366 252.1 128.798 252.84 127.539C253.58 126.281 254.599 125.352 255.919 124.742C257.238 124.133 258.767 123.833 260.526 123.833C262.046 123.833 263.415 124.083 264.614 124.573C265.824 125.062 266.773 125.781 267.483 126.71C268.193 127.639 268.573 128.748 268.643 130.027H262.405C262.395 129.268 262.226 128.668 261.906 128.209C261.586 127.749 261.096 127.529 260.426 127.529C259.837 127.529 259.377 127.719 259.017 128.089C258.667 128.458 258.417 128.988 258.267 129.677C258.118 130.366 258.038 131.216 258.038 132.234C258.038 133.293 258.107 134.162 258.247 134.862C258.387 135.561 258.627 136.09 258.977 136.46C259.327 136.83 259.777 137.009 260.346 137.009C260.846 137.009 261.246 136.88 261.556 136.63C261.866 136.38 262.096 136.04 262.236 135.611C262.385 135.191 262.465 134.702 262.495 134.142H268.633C268.563 135.621 268.163 136.86 267.423 137.838C266.683 138.827 265.694 139.547 264.464 140.026C263.225 140.496 261.826 140.735 260.246 140.735C258.517 140.735 257.008 140.426 255.739 139.816Z" fill="white"/>
<path d="M273.52 128.608H269.192V124.233H283.675V128.608H279.348V140.336H273.52V128.608Z" fill="white"/>
<path d="M284.915 124.233H290.682V134.382H290.142L294.91 124.233H301.627V140.336H295.86V129.837H296.559L291.622 140.336H284.905V124.233H284.915Z" fill="white"/>
<path d="M311.542 128.608H307.214V124.233H321.698V128.608H317.37V140.336H311.542V128.608Z" fill="white"/>
<path d="M327.445 136.979C327.405 136.71 327.265 136.47 327.025 136.26C326.775 136.05 326.405 135.881 325.906 135.771L321.847 124.243H328.075L330.433 132.734H329.754L332.083 124.243H338.18L332.572 140.346H326.515L327.315 137.888C327.445 137.549 327.475 137.249 327.445 136.979Z" fill="white"/>
<path d="M342.728 128.608H338.4V124.233H352.883V128.608H348.555V140.336H342.728V128.608Z" fill="white"/>
<path d="M78.1322 116.621V108.13H76.5129C75.8333 108.13 75.2635 108.22 74.8037 108.41C74.3439 108.589 73.9941 108.869 73.7642 109.249C73.5343 109.618 73.4144 110.098 73.4144 110.667V116.621H64.9584V110.907C64.9584 109.638 65.1783 108.659 65.6281 107.95C66.0778 107.251 66.7375 106.721 67.6171 106.372C68.4967 106.022 69.6961 105.742 71.2354 105.513L71.3953 106.052C70.2159 105.902 69.1564 105.593 68.2068 105.133C67.2573 104.674 66.4877 103.984 65.9079 103.075C65.3282 102.166 65.0283 101.017 65.0283 99.6189C65.0283 98.1904 65.3782 97.0117 66.0778 96.0827C66.7775 95.1537 67.837 94.4644 69.2663 94.0149C70.6957 93.5654 72.5248 93.3356 74.7438 93.3356H86.5482V116.621H78.1322ZM78.1322 103.325V98.3703H76.433C75.7633 98.3703 75.2036 98.4502 74.7538 98.61C74.294 98.7698 73.9441 99.0196 73.6943 99.3692C73.4444 99.7188 73.3244 100.178 73.3244 100.738C73.3244 101.367 73.4544 101.867 73.7043 102.246C73.9541 102.626 74.314 102.895 74.7737 103.065C75.2335 103.235 75.7833 103.315 76.433 103.315H78.1322V103.325Z" fill="white"/>
<path d="M95.2741 102.136H113.595V107.79H95.2741V102.136Z" fill="white"/>
<path d="M127.029 116.321C125.33 115.732 123.991 114.823 123.011 113.614C122.022 112.395 121.392 110.847 121.102 108.979H129.888C129.948 109.548 130.118 110.058 130.378 110.507C130.637 110.947 131.007 111.297 131.467 111.556C131.927 111.816 132.467 111.936 133.096 111.936C134.266 111.936 135.145 111.476 135.745 110.567C136.345 109.648 136.655 108.24 136.655 106.322V103.335C136.655 102.136 136.525 101.137 136.275 100.358C136.025 99.569 135.645 98.9896 135.145 98.61C134.646 98.2304 134.036 98.0406 133.306 98.0406C132.497 98.0406 131.827 98.2504 131.287 98.6799C130.747 99.1095 130.368 99.6889 130.158 100.428H121.202C121.562 98.9496 122.271 97.631 123.331 96.4723C124.39 95.3235 125.77 94.4145 127.489 93.7551C129.198 93.0958 131.167 92.7662 133.406 92.7662C135.915 92.7662 138.084 93.2257 139.913 94.1348C141.742 95.0438 143.152 96.4123 144.151 98.2304C145.151 100.058 145.64 102.296 145.64 104.963C145.64 107.69 145.131 109.968 144.101 111.796C143.072 113.624 141.632 114.983 139.773 115.882C137.914 116.781 135.735 117.22 133.216 117.22C130.787 117.2 128.728 116.911 127.029 116.321ZM128.858 101.976H137.434V107.331H128.858V101.976Z" fill="white"/>
<path d="M147.619 93.3356H156.036V116.621H147.619V93.3356ZM155.596 104.244L160.523 93.3356H169.939L163.142 105.013L163.302 102.656L169.939 116.621H160.563L155.596 104.244Z" fill="white"/>
<path d="M176.426 115.882C174.497 115.003 172.978 113.644 171.878 111.816C170.779 109.988 170.229 107.7 170.229 104.943C170.229 102.186 170.789 99.8887 171.918 98.0706C173.047 96.2425 174.577 94.9039 176.516 94.0448C178.455 93.1857 180.664 92.7562 183.143 92.7562C185.632 92.7562 187.841 93.1757 189.78 94.0348C191.709 94.8839 193.238 96.2225 194.367 98.0406C195.497 99.8587 196.057 102.166 196.057 104.953C196.057 107.7 195.507 109.988 194.407 111.826C193.308 113.654 191.789 115.013 189.86 115.892C187.93 116.771 185.692 117.21 183.153 117.21C180.614 117.21 178.355 116.761 176.426 115.882ZM185.412 110.937C185.971 110.328 186.371 109.518 186.591 108.5C186.811 107.481 186.931 106.292 186.931 104.943C186.931 103.605 186.821 102.426 186.591 101.417C186.361 100.408 185.971 99.609 185.412 99.0096C184.852 98.4102 184.092 98.1105 183.143 98.1105C181.743 98.1105 180.764 98.7299 180.194 99.9586C179.624 101.197 179.345 102.856 179.345 104.943C179.345 106.292 179.454 107.481 179.684 108.5C179.914 109.518 180.304 110.328 180.864 110.937C181.424 111.546 182.183 111.846 183.133 111.846C184.092 111.846 184.852 111.546 185.412 110.937Z" fill="white"/>
<path d="M204.533 111.766C204.483 111.376 204.273 111.027 203.923 110.717C203.573 110.408 203.033 110.178 202.314 110.008L196.456 93.3356H205.462L208.881 105.613H207.891L211.26 93.3356H220.075L211.969 116.621H203.213L204.373 113.065C204.533 112.585 204.593 112.156 204.533 111.766Z" fill="white"/>
<path d="M221.245 93.3356H243.234V116.621H234.818V99.5091H229.671V116.621H221.255V93.3356H221.245Z" fill="white"/>
<path d="M251.351 93.3356H263.215L270.062 116.621H261.266L260.107 111.836L259.217 107.401L256.798 96.9118H257.738L255.259 107.421L254.269 112.066L253.14 116.631H244.434L251.351 93.3356ZM250.891 106.841H264.295V112.685H250.891V106.841Z" fill="white"/>
<path d="M271.301 93.3356H279.717V116.621H271.301V93.3356ZM279.278 104.244L284.205 93.3356H293.621L286.824 105.013L286.984 102.656L293.621 116.621H284.245L279.278 104.244Z" fill="white"/>
<path d="M300.118 115.882C298.189 115.003 296.669 113.644 295.57 111.816C294.47 109.988 293.921 107.7 293.921 104.943C293.921 102.186 294.48 99.8887 295.61 98.0706C296.739 96.2425 298.269 94.9039 300.208 94.0448C302.147 93.1857 304.356 92.7562 306.835 92.7562C309.323 92.7562 311.532 93.1757 313.471 94.0348C315.401 94.8839 316.93 96.2225 318.059 98.0406C319.189 99.8587 319.748 102.166 319.748 104.953C319.748 107.7 319.199 109.988 318.099 111.826C317 113.654 315.48 115.013 313.551 115.892C311.622 116.771 309.383 117.21 306.845 117.21C304.306 117.21 302.047 116.761 300.118 115.882ZM309.093 110.937C309.653 110.328 310.053 109.518 310.273 108.5C310.493 107.481 310.613 106.292 310.613 104.943C310.613 103.605 310.503 102.426 310.273 101.417C310.043 100.408 309.653 99.609 309.093 99.0096C308.534 98.4102 307.774 98.1105 306.825 98.1105C305.425 98.1105 304.446 98.7299 303.876 99.9586C303.306 101.197 303.026 102.856 303.026 104.943C303.026 106.292 303.136 107.481 303.366 108.5C303.596 109.518 303.986 110.328 304.546 110.937C305.105 111.546 305.865 111.846 306.815 111.846C307.784 111.846 308.534 111.546 309.093 110.937Z" fill="white"/>
<path d="M321.708 93.3356H334.162C336.071 93.3356 337.66 93.5354 338.949 93.9449C340.239 94.3545 341.208 94.9639 341.868 95.793C342.528 96.6221 342.858 97.661 342.858 98.9197C342.858 100.118 342.568 101.157 341.978 102.026C341.388 102.895 340.579 103.565 339.549 104.034C338.52 104.504 337.33 104.763 335.981 104.803L336.111 104.104C337.49 104.144 338.74 104.384 339.859 104.823C340.978 105.263 341.878 105.912 342.548 106.801C343.217 107.69 343.557 108.789 343.557 110.098C343.557 111.706 343.137 112.995 342.308 113.954C341.478 114.913 340.309 115.592 338.809 116.002C337.31 116.411 335.481 116.611 333.332 116.611H321.718V93.3356H321.708ZM333.812 101.697C334.252 101.327 334.472 100.778 334.472 100.038C334.472 99.3692 334.252 98.8797 333.812 98.5701C333.372 98.2604 332.772 98.1105 332.013 98.1105H330.134V102.246H331.973C332.752 102.246 333.372 102.066 333.812 101.697ZM333.962 111.177C334.452 110.767 334.701 110.148 334.701 109.299C334.701 108.52 334.462 107.94 333.982 107.561C333.502 107.181 332.832 106.991 331.973 106.991H330.134V111.776H331.863C332.772 111.786 333.472 111.576 333.962 111.177Z" fill="white"/>
<path d="M345.416 93.3356H353.832V116.621H345.416V93.3356ZM353.383 104.244L358.31 93.3356H367.726L360.929 105.013L361.089 102.656L367.726 116.621H358.35L353.383 104.244Z" fill="white"/>
<path d="M374.163 93.3356H386.027L392.874 116.621H384.078L382.919 111.836L382.029 107.401L379.61 96.9118H380.55L378.071 107.421L377.081 112.066L375.952 116.631H367.246L374.163 93.3356ZM373.703 106.841H387.107V112.685H373.703V106.841Z" fill="white"/>
<path d="M394.213 110.907H401.47L399.051 120.617H392.904L394.213 110.907Z" fill="white"/>
<rect x="49.9454" y="120.607" width="325.847" height="27.9704" fill="#83BB21"/>
<path d="M289.083 151.834H174.917V268.52H289.083V151.834Z" fill="white"/>
<path d="M222.502 161.431H218.59V165.464H222.502V161.431Z" fill="#020203"/>
<path d="M226.312 161.431H222.4V165.464H226.312V161.431Z" fill="#020203"/>
<path d="M233.932 161.431H230.02V165.464H233.932V161.431Z" fill="#020203"/>
<path d="M237.743 161.431H233.831V165.464H237.743V161.431Z" fill="#020203"/>
<path d="M245.363 161.431H241.451V165.464H245.363V161.431Z" fill="#020203"/>
<path d="M237.743 165.321H233.831V169.354H237.743V165.321Z" fill="#020203"/>
<path d="M241.553 165.321H237.641V169.354H241.553V165.321Z" fill="#020203"/>
<path d="M245.363 165.321H241.451V169.354H245.363V165.321Z" fill="#020203"/>
<path d="M249.173 165.321H245.261V169.354H249.173V165.321Z" fill="#020203"/>
<path d="M218.692 169.211H214.779V173.245H218.692V169.211Z" fill="#020203"/>
<path d="M222.502 169.211H218.59V173.245H222.502V169.211Z" fill="#020203"/>
<path d="M226.312 169.211H222.4V173.245H226.312V169.211Z" fill="#020203"/>
<path d="M237.743 169.211H233.831V173.245H237.743V169.211Z" fill="#020203"/>
<path d="M245.363 169.211H241.451V173.245H245.363V169.211Z" fill="#020203"/>
<path d="M249.173 169.211H245.261V173.245H249.173V169.211Z" fill="#020203"/>
<path d="M218.692 173.102H214.779V177.135H218.692V173.102Z" fill="#020203"/>
<path d="M222.502 173.102H218.59V177.135H222.502V173.102Z" fill="#020203"/>
<path d="M226.312 173.102H222.4V177.135H226.312V173.102Z" fill="#020203"/>
<path d="M230.122 173.102H226.21V177.135H230.122V173.102Z" fill="#020203"/>
<path d="M241.553 173.102H237.641V177.135H241.553V173.102Z" fill="#020203"/>
<path d="M245.363 173.102H241.451V177.135H245.363V173.102Z" fill="#020203"/>
<path d="M249.173 173.102H245.261V177.135H249.173V173.102Z" fill="#020203"/>
<path d="M218.692 176.992H214.779V181.025H218.692V176.992Z" fill="#020203"/>
<path d="M226.312 176.992H222.4V181.025H226.312V176.992Z" fill="#020203"/>
<path d="M233.932 176.992H230.02V181.025H233.932V176.992Z" fill="#020203"/>
<path d="M249.173 176.992H245.261V181.025H249.173V176.992Z" fill="#020203"/>
<path d="M218.692 180.882H214.779V184.915H218.692V180.882Z" fill="#020203"/>
<path d="M226.312 180.882H222.4V184.915H226.312V180.882Z" fill="#020203"/>
<path d="M230.122 180.882H226.21V184.915H230.122V180.882Z" fill="#020203"/>
<path d="M245.363 180.882H241.451V184.915H245.363V180.882Z" fill="#020203"/>
<path d="M218.692 184.772H214.779V188.806H218.692V184.772Z" fill="#020203"/>
<path d="M226.312 184.772H222.4V188.806H226.312V184.772Z" fill="#020203"/>
<path d="M233.932 184.772H230.02V188.806H233.932V184.772Z" fill="#020203"/>
<path d="M241.553 184.772H237.641V188.806H241.553V184.772Z" fill="#020203"/>
<path d="M249.173 184.772H245.261V188.806H249.173V184.772Z" fill="#020203"/>
<path d="M218.692 188.704H214.779V192.737H218.692V188.704Z" fill="#020203"/>
<path d="M222.502 188.704H218.59V192.737H222.502V188.704Z" fill="#020203"/>
<path d="M226.312 188.704H222.4V192.737H226.312V188.704Z" fill="#020203"/>
<path d="M230.122 188.704H226.21V192.737H230.122V188.704Z" fill="#020203"/>
<path d="M241.553 188.704H237.641V192.737H241.553V188.704Z" fill="#020203"/>
<path d="M188.21 192.594H184.298V196.627H188.21V192.594Z" fill="#020203"/>
<path d="M195.83 192.594H191.918V196.627H195.83V192.594Z" fill="#020203"/>
<path d="M199.641 192.594H195.728V196.627H199.641V192.594Z" fill="#020203"/>
<path d="M203.451 192.594H199.539V196.627H203.451V192.594Z" fill="#020203"/>
<path d="M207.261 192.594H203.349V196.627H207.261V192.594Z" fill="#020203"/>
<path d="M211.071 192.594H207.159V196.627H211.071V192.594Z" fill="#020203"/>
<path d="M226.312 192.594H222.4V196.627H226.312V192.594Z" fill="#020203"/>
<path d="M230.122 192.594H226.21V196.627H230.122V192.594Z" fill="#020203"/>
<path d="M233.932 192.594H230.02V196.627H233.932V192.594Z" fill="#020203"/>
<path d="M245.363 192.594H241.451V196.627H245.363V192.594Z" fill="#020203"/>
<path d="M249.173 192.594H245.261V196.627H249.173V192.594Z" fill="#020203"/>
<path d="M256.835 192.594H252.923V196.627H256.835V192.594Z" fill="#020203"/>
<path d="M260.645 192.594H256.733V196.627H260.645V192.594Z" fill="#020203"/>
<path d="M264.455 192.594H260.543V196.627H264.455V192.594Z" fill="#020203"/>
<path d="M268.265 192.594H264.353V196.627H268.265V192.594Z" fill="#020203"/>
<path d="M272.076 192.594H268.164V196.627H272.076V192.594Z" fill="#020203"/>
<path d="M199.641 196.484H195.728V200.518H199.641V196.484Z" fill="#020203"/>
<path d="M203.451 196.484H199.539V200.518H203.451V196.484Z" fill="#020203"/>
<path d="M207.261 196.484H203.349V200.518H207.261V196.484Z" fill="#020203"/>
<path d="M214.881 196.484H210.969V200.518H214.881V196.484Z" fill="#020203"/>
<path d="M226.312 196.484H222.4V200.518H226.312V196.484Z" fill="#020203"/>
<path d="M230.122 196.484H226.21V200.518H230.122V196.484Z" fill="#020203"/>
<path d="M233.932 196.484H230.02V200.518H233.932V196.484Z" fill="#020203"/>
<path d="M237.743 196.484H233.831V200.518H237.743V196.484Z" fill="#020203"/>
<path d="M241.553 196.484H237.641V200.518H241.553V196.484Z" fill="#020203"/>
<path d="M249.173 196.484H245.261V200.518H249.173V196.484Z" fill="#020203"/>
<path d="M260.645 196.484H256.733V200.518H260.645V196.484Z" fill="#020203"/>
<path d="M275.886 196.484H271.974V200.518H275.886V196.484Z" fill="#020203"/>
<path d="M192.02 200.375H188.108V204.408H192.02V200.375Z" fill="#020203"/>
<path d="M207.261 200.375H203.349V204.408H207.261V200.375Z" fill="#020203"/>
<path d="M211.071 200.375H207.159V204.408H211.071V200.375Z" fill="#020203"/>
<path d="M214.881 200.375H210.969V204.408H214.881V200.375Z" fill="#020203"/>
<path d="M226.312 200.375H222.4V204.408H226.312V200.375Z" fill="#020203"/>
<path d="M233.932 200.375H230.02V204.408H233.932V200.375Z" fill="#020203"/>
<path d="M237.743 200.375H233.831V204.408H237.743V200.375Z" fill="#020203"/>
<path d="M241.553 200.375H237.641V204.408H241.553V200.375Z" fill="#020203"/>
<path d="M245.363 200.375H241.451V204.408H245.363V200.375Z" fill="#020203"/>
<path d="M256.835 200.375H252.923V204.408H256.835V200.375Z" fill="#020203"/>
<path d="M268.265 200.375H264.353V204.408H268.265V200.375Z" fill="#020203"/>
<path d="M275.886 200.375H271.974V204.408H275.886V200.375Z" fill="#020203"/>
<path d="M279.696 200.375H275.784V204.408H279.696V200.375Z" fill="#020203"/>
<path d="M199.641 204.265H195.728V208.298H199.641V204.265Z" fill="#020203"/>
<path d="M214.881 204.265H210.969V208.298H214.881V204.265Z" fill="#020203"/>
<path d="M230.122 204.265H226.21V208.298H230.122V204.265Z" fill="#020203"/>
<path d="M237.743 204.265H233.831V208.298H237.743V204.265Z" fill="#020203"/>
<path d="M249.173 204.265H245.261V208.298H249.173V204.265Z" fill="#020203"/>
<path d="M253.025 204.265H249.113V208.298H253.025V204.265Z" fill="#020203"/>
<path d="M256.835 204.265H252.923V208.298H256.835V204.265Z" fill="#020203"/>
<path d="M260.645 204.265H256.733V208.298H260.645V204.265Z" fill="#020203"/>
<path d="M279.696 204.265H275.784V208.298H279.696V204.265Z" fill="#020203"/>
<path d="M188.21 208.155H184.298V212.189H188.21V208.155Z" fill="#020203"/>
<path d="M192.02 208.155H188.108V212.189H192.02V208.155Z" fill="#020203"/>
<path d="M195.83 208.155H191.918V212.189H195.83V208.155Z" fill="#020203"/>
<path d="M203.451 208.155H199.539V212.189H203.451V208.155Z" fill="#020203"/>
<path d="M211.071 208.155H207.159V212.189H211.071V208.155Z" fill="#020203"/>
<path d="M214.881 208.155H210.969V212.189H214.881V208.155Z" fill="#020203"/>
<path d="M222.502 208.155H218.59V212.189H222.502V208.155Z" fill="#020203"/>
<path d="M226.312 208.155H222.4V212.189H226.312V208.155Z" fill="#020203"/>
<path d="M230.122 208.155H226.21V212.189H230.122V208.155Z" fill="#020203"/>
<path d="M233.932 208.155H230.02V212.189H233.932V208.155Z" fill="#020203"/>
<path d="M241.553 208.155H237.641V212.189H241.553V208.155Z" fill="#020203"/>
<path d="M253.025 208.155H249.113V212.189H253.025V208.155Z" fill="#020203"/>
<path d="M256.835 208.155H252.923V212.189H256.835V208.155Z" fill="#020203"/>
<path d="M260.645 208.155H256.733V212.189H260.645V208.155Z" fill="#020203"/>
<path d="M264.455 208.155H260.543V212.189H264.455V208.155Z" fill="#020203"/>
<path d="M272.076 208.155H268.164V212.189H272.076V208.155Z" fill="#020203"/>
<path d="M275.886 208.155H271.974V212.189H275.886V208.155Z" fill="#020203"/>
<path d="M279.696 208.155H275.784V212.189H279.696V208.155Z" fill="#020203"/>
<path d="M188.21 212.046H184.298V216.079H188.21V212.046Z" fill="#020203"/>
<path d="M203.451 212.046H199.539V216.079H203.451V212.046Z" fill="#020203"/>
<path d="M218.692 212.046H214.779V216.079H218.692V212.046Z" fill="#020203"/>
<path d="M222.502 212.046H218.59V216.079H222.502V212.046Z" fill="#020203"/>
<path d="M260.645 212.046H256.733V216.079H260.645V212.046Z" fill="#020203"/>
<path d="M268.265 212.046H264.353V216.079H268.265V212.046Z" fill="#020203"/>
<path d="M275.886 212.046H271.974V216.079H275.886V212.046Z" fill="#020203"/>
<path d="M188.21 215.977H184.298V220.01H188.21V215.977Z" fill="#020203"/>
<path d="M195.83 215.977H191.918V220.01H195.83V215.977Z" fill="#020203"/>
<path d="M199.641 215.977H195.728V220.01H199.641V215.977Z" fill="#020203"/>
<path d="M211.071 215.977H207.159V220.01H211.071V215.977Z" fill="#020203"/>
<path d="M214.881 215.977H210.969V220.01H214.881V215.977Z" fill="#020203"/>
<path d="M218.692 215.977H214.779V220.01H218.692V215.977Z" fill="#020203"/>
<path d="M226.312 215.977H222.4V220.01H226.312V215.977Z" fill="#020203"/>
<path d="M230.122 215.977H226.21V220.01H230.122V215.977Z" fill="#020203"/>
<path d="M233.932 215.977H230.02V220.01H233.932V215.977Z" fill="#020203"/>
<path d="M245.363 215.977H241.451V220.01H245.363V215.977Z" fill="#020203"/>
<path d="M249.173 215.977H245.261V220.01H249.173V215.977Z" fill="#020203"/>
<path d="M253.025 215.977H249.113V220.01H253.025V215.977Z" fill="#020203"/>
<path d="M260.645 215.977H256.733V220.01H260.645V215.977Z" fill="#020203"/>
<path d="M264.455 215.977H260.543V220.01H264.455V215.977Z" fill="#020203"/>
<path d="M268.265 215.977H264.353V220.01H268.265V215.977Z" fill="#020203"/>
<path d="M275.886 215.977H271.974V220.01H275.886V215.977Z" fill="#020203"/>
<path d="M279.696 215.977H275.784V220.01H279.696V215.977Z" fill="#020203"/>
<path d="M188.21 219.867H184.298V223.901H188.21V219.867Z" fill="#020203"/>
<path d="M195.83 219.867H191.918V223.901H195.83V219.867Z" fill="#020203"/>
<path d="M203.451 219.867H199.539V223.901H203.451V219.867Z" fill="#020203"/>
<path d="M214.881 219.867H210.969V223.901H214.881V219.867Z" fill="#020203"/>
<path d="M218.692 219.867H214.779V223.901H218.692V219.867Z" fill="#020203"/>
<path d="M230.122 219.867H226.21V223.901H230.122V219.867Z" fill="#020203"/>
<path d="M241.553 219.867H237.641V223.901H241.553V219.867Z" fill="#020203"/>
<path d="M245.363 219.867H241.451V223.901H245.363V219.867Z" fill="#020203"/>
<path d="M260.645 219.867H256.733V223.901H260.645V219.867Z" fill="#020203"/>
<path d="M264.455 219.867H260.543V223.901H264.455V219.867Z" fill="#020203"/>
<path d="M279.696 219.867H275.784V223.901H279.696V219.867Z" fill="#020203"/>
<path d="M188.21 223.758H184.298V227.791H188.21V223.758Z" fill="#020203"/>
<path d="M195.83 223.758H191.918V227.791H195.83V223.758Z" fill="#020203"/>
<path d="M211.071 223.758H207.159V227.791H211.071V223.758Z" fill="#020203"/>
<path d="M218.692 223.758H214.779V227.791H218.692V223.758Z" fill="#020203"/>
<path d="M222.502 223.758H218.59V227.791H222.502V223.758Z" fill="#020203"/>
<path d="M226.312 223.758H222.4V227.791H226.312V223.758Z" fill="#020203"/>
<path d="M230.122 223.758H226.21V227.791H230.122V223.758Z" fill="#020203"/>
<path d="M249.173 223.758H245.261V227.791H249.173V223.758Z" fill="#020203"/>
<path d="M253.025 223.758H249.113V227.791H253.025V223.758Z" fill="#020203"/>
<path d="M256.835 223.758H252.923V227.791H256.835V223.758Z" fill="#020203"/>
<path d="M260.645 223.758H256.733V227.791H260.645V223.758Z" fill="#020203"/>
<path d="M264.455 223.758H260.543V227.791H264.455V223.758Z" fill="#020203"/>
<path d="M272.076 223.758H268.164V227.791H272.076V223.758Z" fill="#020203"/>
<path d="M218.692 227.648H214.779V231.681H218.692V227.648Z" fill="#020203"/>
<path d="M222.502 227.648H218.59V231.681H222.502V227.648Z" fill="#020203"/>
<path d="M226.312 227.648H222.4V231.681H226.312V227.648Z" fill="#020203"/>
<path d="M233.932 227.648H230.02V231.681H233.932V227.648Z" fill="#020203"/>
<path d="M237.743 227.648H233.831V231.681H237.743V227.648Z" fill="#020203"/>
<path d="M241.553 227.648H237.641V231.681H241.553V227.648Z" fill="#020203"/>
<path d="M245.363 227.648H241.451V231.681H245.363V227.648Z" fill="#020203"/>
<path d="M249.173 227.648H245.261V231.681H249.173V227.648Z" fill="#020203"/>
<path d="M264.455 227.648H260.543V231.681H264.455V227.648Z" fill="#020203"/>
<path d="M268.265 227.648H264.353V231.681H268.265V227.648Z" fill="#020203"/>
<path d="M226.312 231.538H222.4V235.571H226.312V231.538Z" fill="#020203"/>
<path d="M237.743 231.538H233.831V235.571H237.743V231.538Z" fill="#020203"/>
<path d="M241.553 231.538H237.641V235.571H241.553V231.538Z" fill="#020203"/>
<path d="M249.173 231.538H245.261V235.571H249.173V231.538Z" fill="#020203"/>
<path d="M256.835 231.538H252.923V235.571H256.835V231.538Z" fill="#020203"/>
<path d="M264.455 231.538H260.543V235.571H264.455V231.538Z" fill="#020203"/>
<path d="M272.076 231.538H268.164V235.571H272.076V231.538Z" fill="#020203"/>
<path d="M275.886 231.538H271.974V235.571H275.886V231.538Z" fill="#020203"/>
<path d="M279.696 231.538H275.784V235.571H279.696V231.538Z" fill="#020203"/>
<path d="M218.692 235.428H214.779V239.462H218.692V235.428Z" fill="#020203"/>
<path d="M233.932 235.428H230.02V239.462H233.932V235.428Z" fill="#020203"/>
<path d="M237.743 235.428H233.831V239.462H237.743V235.428Z" fill="#020203"/>
<path d="M249.173 235.428H245.261V239.462H249.173V235.428Z" fill="#020203"/>
<path d="M264.455 235.428H260.543V239.462H264.455V235.428Z" fill="#020203"/>
<path d="M268.265 235.428H264.353V239.462H268.265V235.428Z" fill="#020203"/>
<path d="M275.886 235.428H271.974V239.462H275.886V235.428Z" fill="#020203"/>
<path d="M279.696 235.428H275.784V239.462H279.696V235.428Z" fill="#020203"/>
<path d="M218.692 239.319H214.779V243.352H218.692V239.319Z" fill="#020203"/>
<path d="M222.502 239.319H218.59V243.352H222.502V239.319Z" fill="#020203"/>
<path d="M226.312 239.319H222.4V243.352H226.312V239.319Z" fill="#020203"/>
<path d="M233.932 239.319H230.02V243.352H233.932V239.319Z" fill="#020203"/>
<path d="M241.553 239.319H237.641V243.352H241.553V239.319Z" fill="#020203"/>
<path d="M245.363 239.319H241.451V243.352H245.363V239.319Z" fill="#020203"/>
<path d="M249.173 239.319H245.261V243.352H249.173V239.319Z" fill="#020203"/>
<path d="M253.025 239.319H249.113V243.352H253.025V239.319Z" fill="#020203"/>
<path d="M256.835 239.319H252.923V243.352H256.835V239.319Z" fill="#020203"/>
<path d="M260.645 239.319H256.733V243.352H260.645V239.319Z" fill="#020203"/>
<path d="M264.455 239.319H260.543V243.352H264.455V239.319Z" fill="#020203"/>
<path d="M272.076 239.319H268.164V243.352H272.076V239.319Z" fill="#020203"/>
<path d="M279.696 239.319H275.784V243.352H279.696V239.319Z" fill="#020203"/>
<path d="M218.692 243.25H214.779V247.283H218.692V243.25Z" fill="#020203"/>
<path d="M222.502 243.25H218.59V247.283H222.502V243.25Z" fill="#020203"/>
<path d="M226.312 243.25H222.4V247.283H226.312V243.25Z" fill="#020203"/>
<path d="M249.173 243.25H245.261V247.283H249.173V243.25Z" fill="#020203"/>
<path d="M253.025 243.25H249.113V247.283H253.025V243.25Z" fill="#020203"/>
<path d="M256.835 243.25H252.923V247.283H256.835V243.25Z" fill="#020203"/>
<path d="M264.455 243.25H260.543V247.283H264.455V243.25Z" fill="#020203"/>
<path d="M268.265 243.25H264.353V247.283H268.265V243.25Z" fill="#020203"/>
<path d="M272.076 243.25H268.164V247.283H272.076V243.25Z" fill="#020203"/>
<path d="M275.886 243.25H271.974V247.283H275.886V243.25Z" fill="#020203"/>
<path d="M279.696 243.25H275.784V247.283H279.696V243.25Z" fill="#020203"/>
<path d="M218.692 247.14H214.779V251.174H218.692V247.14Z" fill="#020203"/>
<path d="M222.502 247.14H218.59V251.174H222.502V247.14Z" fill="#020203"/>
<path d="M230.122 247.14H226.21V251.174H230.122V247.14Z" fill="#020203"/>
<path d="M233.932 247.14H230.02V251.174H233.932V247.14Z" fill="#020203"/>
<path d="M245.363 247.14H241.451V251.174H245.363V247.14Z" fill="#020203"/>
<path d="M249.173 247.14H245.261V251.174H249.173V247.14Z" fill="#020203"/>
<path d="M253.025 247.14H249.113V251.174H253.025V247.14Z" fill="#020203"/>
<path d="M268.265 247.14H264.353V251.174H268.265V247.14Z" fill="#020203"/>
<path d="M272.076 247.14H268.164V251.174H272.076V247.14Z" fill="#020203"/>
<path d="M279.696 247.14H275.784V251.174H279.696V247.14Z" fill="#020203"/>
<path d="M222.502 251.031H218.59V255.064H222.502V251.031Z" fill="#020203"/>
<path d="M226.312 251.031H222.4V255.064H226.312V251.031Z" fill="#020203"/>
<path d="M230.122 251.031H226.21V255.064H230.122V251.031Z" fill="#020203"/>
<path d="M241.553 251.031H237.641V255.064H241.553V251.031Z" fill="#020203"/>
<path d="M245.363 251.031H241.451V255.064H245.363V251.031Z" fill="#020203"/>
<path d="M249.173 251.031H245.261V255.064H249.173V251.031Z" fill="#020203"/>
<path d="M253.025 251.031H249.113V255.064H253.025V251.031Z" fill="#020203"/>
<path d="M256.835 251.031H252.923V255.064H256.835V251.031Z" fill="#020203"/>
<path d="M260.645 251.031H256.733V255.064H260.645V251.031Z" fill="#020203"/>
<path d="M264.455 251.031H260.543V255.064H264.455V251.031Z" fill="#020203"/>
<path d="M268.265 251.031H264.353V255.064H268.265V251.031Z" fill="#020203"/>
<path d="M279.696 251.031H275.784V255.064H279.696V251.031Z" fill="#020203"/>
<path d="M218.692 254.921H214.779V258.954H218.692V254.921Z" fill="#020203"/>
<path d="M230.122 254.921H226.21V258.954H230.122V254.921Z" fill="#020203"/>
<path d="M253.025 254.921H249.113V258.954H253.025V254.921Z" fill="#020203"/>
<path d="M256.835 254.921H252.923V258.954H256.835V254.921Z" fill="#020203"/>
<path d="M260.645 254.921H256.733V258.954H260.645V254.921Z" fill="#020203"/>
<path d="M264.455 254.921H260.543V258.954H264.455V254.921Z" fill="#020203"/>
<path d="M268.265 254.921H264.353V258.954H268.265V254.921Z" fill="#020203"/>
<path d="M272.076 254.921H268.164V258.954H272.076V254.921Z" fill="#020203"/>
<path d="M275.886 254.921H271.974V258.954H275.886V254.921Z" fill="#020203"/>
<path d="M279.696 254.921H275.784V258.954H279.696V254.921Z" fill="#020203"/>
<path d="M184.322 161.364V188.695H210.95V161.364H184.322ZM207.111 184.739H188.04V165.2H207.111V184.739Z" fill="#020203"/>
<path d="M252.93 161.364V188.695H279.557V161.364H252.93ZM275.719 184.739H256.648V165.2H275.719V184.739Z" fill="#020203"/>
<path d="M184.322 231.489V258.82H210.95V231.489H184.322ZM207.111 254.865H188.04V235.445H207.111V254.865Z" fill="#020203"/>
<path d="M203.273 169.155H191.879V180.903H203.273V169.155Z" fill="#020203"/>
<path d="M271.881 169.155H260.486V180.903H271.881V169.155Z" fill="#020203"/>
<path d="M203.273 239.281H191.879V251.029H203.273V239.281Z" fill="#020203"/>
<path d="M109.018 191.831C109.018 191.831 109.627 184.589 108.828 182.222C108.018 179.864 105.799 178.575 105.799 178.575L103.48 177.397C103.48 177.397 103.57 183.101 103.68 184.349C103.79 185.598 104.24 186.777 104.59 187.756C104.93 188.735 105.709 189.454 106.429 190.113C107.159 190.772 109.018 191.831 109.018 191.831Z" fill="white"/>
<path d="M102.071 186.027C102.071 186.027 94.7144 184.659 92.7453 183.26C90.7762 181.862 90.4564 179.414 90.4564 179.414L90.2865 176.907C90.2865 176.907 95.8339 178.535 97.0133 178.975C98.1927 179.414 99.1523 180.164 99.9619 180.753C100.782 181.342 101.151 182.261 101.491 183.121C101.841 183.98 102.071 186.027 102.071 186.027Z" fill="white"/>
<path d="M115.824 198.285C115.824 198.285 118.363 191.492 118.223 188.994C118.083 186.497 116.294 184.639 116.294 184.639L114.385 182.851C114.385 182.851 112.936 188.365 112.706 189.594C112.176 191.312 112.656 193.13 112.656 193.13C112.656 193.13 113.276 195.068 113.785 195.917C114.315 196.746 115.824 198.285 115.824 198.285Z" fill="white"/>
<path d="M123.671 205.387C123.671 205.387 126.889 197.555 126.809 194.708C126.729 191.871 124.69 189.813 124.69 189.813L122.511 187.846C122.511 187.846 120.622 194.179 120.312 195.587C119.633 197.565 120.132 199.613 120.132 199.613C120.132 199.613 120.792 201.801 121.362 202.74C121.942 203.689 123.671 205.387 123.671 205.387Z" fill="white"/>
<path d="M131.317 212.479C131.317 212.479 135.235 204.048 135.295 201.032C135.345 198.005 133.196 195.877 133.196 195.877L131.287 193.39C131.287 193.39 128.508 200.632 128.099 202.14C127.249 204.268 127.709 206.436 127.709 206.436C127.709 206.436 128.329 208.753 128.918 209.732C129.508 210.711 131.317 212.479 131.317 212.479Z" fill="white"/>
<path d="M140.053 220.461C140.053 220.461 144.111 211.481 144.131 208.244C144.151 205.007 141.852 202.69 141.852 202.69L139.533 199.843C139.533 199.843 136.944 207.735 136.525 209.353C135.645 211.62 136.165 213.948 136.165 213.948C136.165 213.948 136.845 216.435 137.484 217.494C138.124 218.553 140.053 220.461 140.053 220.461Z" fill="white"/>
<path d="M149.109 228.712C149.109 228.712 153.647 218.813 153.687 215.257C153.727 211.7 151.198 209.173 151.198 209.173L148.649 206.056C148.649 206.056 145.74 214.747 145.271 216.525C144.291 219.023 144.851 221.58 144.851 221.58C144.851 221.58 145.59 224.307 146.28 225.476C146.97 226.625 149.109 228.712 149.109 228.712Z" fill="white"/>
<path d="M158.324 237.843C158.324 237.843 163.232 227.204 163.292 223.388C163.342 219.562 160.633 216.865 160.633 216.865L157.895 213.508C157.895 213.508 154.736 222.849 154.226 224.757C153.167 227.444 153.757 230.181 153.757 230.181C153.757 230.181 154.546 233.108 155.286 234.356C156.036 235.605 158.324 237.843 158.324 237.843Z" fill="white"/>
<path d="M108.378 192.561C108.378 192.561 101.391 193.929 99.0024 193.36C96.6235 192.78 95.1442 190.663 95.1442 190.663L93.7549 188.435C93.7549 188.435 99.3222 187.945 100.542 187.926C101.771 187.916 102.961 188.245 103.95 188.495C104.94 188.745 105.709 189.454 106.439 190.113C107.159 190.772 108.378 192.561 108.378 192.561Z" fill="white"/>
<path d="M115.355 198.814C115.355 198.814 109.008 202.1 106.559 202.21C104.11 202.32 102.121 200.702 102.121 200.702L100.182 198.944C100.182 198.944 105.399 196.906 106.569 196.546C108.188 195.827 109.997 196.137 109.997 196.137C109.997 196.137 111.956 196.566 112.826 196.996C113.705 197.435 115.355 198.814 115.355 198.814Z" fill="white"/>
<path d="M123.081 206.056C123.081 206.056 115.784 210.132 113.016 210.352C110.247 210.572 108.028 208.704 108.028 208.704L105.889 206.696C105.889 206.696 111.856 204.118 113.196 203.659C115.055 202.76 117.094 203.069 117.094 203.069C117.094 203.069 119.293 203.509 120.272 203.998C121.252 204.478 123.081 206.056 123.081 206.056Z" fill="white"/>
<path d="M130.767 213.109C130.767 213.109 122.971 217.964 120.032 218.323C117.094 218.683 114.795 216.725 114.795 216.725L112.176 215.037C112.176 215.037 118.943 211.461 120.362 210.891C122.341 209.812 124.5 210.062 124.5 210.062C124.5 210.062 126.819 210.452 127.839 210.951C128.868 211.441 130.767 213.109 130.767 213.109Z" fill="white"/>
<path d="M139.433 221.16C139.433 221.16 131.107 226.215 127.959 226.565C124.81 226.914 122.321 224.816 122.321 224.816L119.303 222.749C119.303 222.749 126.719 219.302 128.249 218.713C130.368 217.594 132.687 217.874 132.687 217.874C132.687 217.874 135.175 218.313 136.275 218.843C137.374 219.372 139.433 221.16 139.433 221.16Z" fill="white"/>
<path d="M148.399 229.521C148.399 229.521 139.233 235.155 135.775 235.565C132.317 235.975 129.598 233.667 129.598 233.667L126.3 231.399C126.3 231.399 134.456 227.544 136.135 226.884C138.464 225.636 141.003 225.935 141.003 225.935C141.003 225.935 143.741 226.405 144.941 226.994C146.15 227.564 148.399 229.521 148.399 229.521Z" fill="white"/>
<path d="M158.234 237.943C158.234 237.943 148.389 244.026 144.671 244.476C140.953 244.925 138.044 242.448 138.044 242.448L134.506 240.01C134.506 240.01 143.272 235.835 145.071 235.126C147.57 233.767 150.298 234.087 150.298 234.087C150.298 234.087 153.227 234.586 154.516 235.215C155.806 235.845 158.234 237.943 158.234 237.943Z" fill="white"/>
<path d="M168.66 247.462C168.04 248.162 166.97 248.222 166.291 247.592L99.9219 184.949C99.2323 184.319 98.7525 183.85 99.1523 183.4C99.5321 182.971 100.132 183.38 100.822 184.01L168.54 245.035C169.229 245.674 169.279 246.763 168.66 247.462Z" fill="white"/>
<path d="M136.355 166.988C136.355 166.988 137.584 162.213 137.314 160.534C137.044 158.856 135.705 157.737 135.705 157.737L134.286 156.679C134.286 156.679 133.696 160.505 133.636 161.354C133.576 162.203 133.736 163.042 133.856 163.741C133.976 164.44 134.406 165.01 134.815 165.539C135.225 166.069 136.355 166.988 136.355 166.988Z" fill="white"/>
<path d="M132.367 162.283C132.367 162.283 127.599 160.495 126.439 159.326C125.28 158.157 125.35 156.479 125.35 156.479L125.52 154.781C125.52 154.781 129.048 156.529 129.778 156.958C130.518 157.398 131.067 158.007 131.547 158.497C132.027 158.986 132.167 159.645 132.297 160.265C132.437 160.884 132.367 162.283 132.367 162.283Z" fill="white"/>
<path d="M140.173 172.112C140.173 172.112 142.642 167.867 142.832 166.178C143.022 164.49 142.032 163.032 142.032 163.032L140.963 161.613C140.963 161.613 139.373 165.13 139.073 165.929C138.524 167.018 138.644 168.286 138.644 168.286C138.644 168.286 138.834 169.655 139.083 170.284C139.333 170.904 140.173 172.112 140.173 172.112Z" fill="white"/>
<path d="M144.621 177.796C144.621 177.796 147.659 172.931 147.929 171.023C148.199 169.115 147.07 167.497 147.07 167.497L145.84 165.919C145.84 165.919 143.861 169.935 143.491 170.844C142.812 172.082 142.922 173.521 142.922 173.521C142.922 173.521 143.112 175.069 143.391 175.758C143.671 176.448 144.621 177.796 144.621 177.796Z" fill="white"/>
<path d="M148.929 183.45C148.929 183.45 152.507 178.276 152.887 176.258C153.267 174.24 152.067 172.562 152.067 172.562L151.068 170.674C151.068 170.674 148.389 175.189 147.939 176.148C147.13 177.467 147.2 178.975 147.2 178.975C147.2 178.975 147.35 180.593 147.629 181.322C147.919 182.052 148.929 183.45 148.929 183.45Z" fill="white"/>
<path d="M153.867 189.823C153.867 189.823 157.595 184.299 157.985 182.132C158.364 179.964 157.085 178.146 157.085 178.146L155.856 175.968C155.856 175.968 153.227 180.943 152.767 181.972C151.927 183.38 152.007 184.999 152.007 184.999C152.007 184.999 152.177 186.747 152.487 187.526C152.787 188.315 153.867 189.823 153.867 189.823Z" fill="white"/>
<path d="M158.994 196.417C158.994 196.417 163.152 190.333 163.582 187.955C164.012 185.578 162.612 183.59 162.612 183.59L161.263 181.203C161.263 181.203 158.334 186.667 157.815 187.806C156.875 189.364 156.955 191.132 156.955 191.132C156.955 191.132 157.135 193.05 157.475 193.909C157.805 194.768 158.994 196.417 158.994 196.417Z" fill="white"/>
<path d="M164.122 203.609C164.122 203.609 168.61 197.076 169.079 194.528C169.549 191.981 168.04 189.843 168.04 189.843L166.591 187.286C166.591 187.286 163.422 193.16 162.862 194.379C161.853 196.047 161.933 197.955 161.933 197.955C161.933 197.955 162.123 200.013 162.482 200.932C162.842 201.851 164.122 203.609 164.122 203.609Z" fill="white"/>
<path d="M135.835 167.407C135.835 167.407 131.007 167.497 129.478 166.828C127.949 166.159 127.199 164.56 127.199 164.56L126.519 162.902C126.519 162.902 130.298 163.232 131.117 163.361C131.937 163.501 132.696 163.861 133.336 164.151C133.976 164.43 134.406 165 134.816 165.529C135.225 166.069 135.835 167.407 135.835 167.407Z" fill="white"/>
<path d="M139.803 172.412C139.803 172.412 135.185 173.86 133.536 173.641C131.887 173.431 130.737 172.102 130.737 172.102L129.638 170.704C129.638 170.704 133.356 169.954 134.186 169.855C135.345 169.565 136.525 169.984 136.525 169.984C136.525 169.984 137.784 170.504 138.314 170.894C138.854 171.293 139.803 172.412 139.803 172.412Z" fill="white"/>
<path d="M144.151 178.176C144.151 178.176 138.814 180.044 136.925 179.854C135.035 179.664 133.776 178.166 133.776 178.166L132.577 176.567C132.577 176.567 136.865 175.549 137.814 175.399C139.153 175.019 140.493 175.469 140.493 175.469C140.493 175.469 141.912 176.028 142.512 176.468C143.102 176.907 144.151 178.176 144.151 178.176Z" fill="white"/>
<path d="M148.499 183.8C148.499 183.8 142.732 186.127 140.723 186.017C138.714 185.918 137.404 184.329 137.404 184.329L135.845 182.891C135.845 182.891 140.773 181.302 141.792 181.083C143.242 180.593 144.651 181.013 144.651 181.013C144.651 181.013 146.16 181.552 146.78 182.002C147.41 182.461 148.499 183.8 148.499 183.8Z" fill="white"/>
<path d="M153.377 190.213C153.377 190.213 147.24 192.611 145.091 192.471C142.942 192.331 141.512 190.633 141.512 190.633L139.733 188.894C139.733 188.894 145.081 187.466 146.17 187.256C147.709 186.757 149.229 187.216 149.229 187.216C149.229 187.216 150.848 187.806 151.518 188.295C152.187 188.785 153.377 190.213 153.377 190.213Z" fill="white"/>
<path d="M158.424 196.866C158.424 196.866 151.658 199.543 149.299 199.413C146.94 199.274 145.381 197.405 145.381 197.405L143.431 195.497C143.431 195.497 149.329 193.889 150.518 193.639C152.217 193.08 153.887 193.58 153.887 193.58C153.887 193.58 155.666 194.219 156.405 194.748C157.145 195.278 158.424 196.866 158.424 196.866Z" fill="white"/>
<path d="M164.052 203.669C164.052 203.669 156.775 206.576 154.236 206.436C151.698 206.296 150.038 204.288 150.038 204.288L147.949 202.24C147.949 202.24 154.286 200.482 155.576 200.222C157.405 199.613 159.194 200.153 159.194 200.153C159.194 200.153 161.103 200.832 161.893 201.411C162.672 201.981 164.052 203.669 164.052 203.669Z" fill="white"/>
<path d="M169.949 211.271C169.459 211.67 168.74 211.58 168.35 211.071L131.057 161.304C130.667 160.804 130.398 160.435 130.717 160.175C131.027 159.935 131.377 160.275 131.767 160.784L170.149 209.632C170.529 210.142 170.439 210.881 169.949 211.271Z" fill="white"/>
<path d="M357.791 191.831C357.791 191.831 357.181 184.589 357.98 182.222C358.79 179.864 361.009 178.575 361.009 178.575L363.328 177.397C363.328 177.397 363.238 183.101 363.128 184.349C363.018 185.598 362.568 186.777 362.219 187.756C361.879 188.735 361.099 189.454 360.379 190.113C359.66 190.772 357.791 191.831 357.791 191.831Z" fill="white"/>
<path d="M364.737 186.027C364.737 186.027 372.094 184.659 374.063 183.26C376.032 181.862 376.352 179.414 376.352 179.414L376.522 176.907C376.522 176.907 370.974 178.535 369.795 178.975C368.615 179.414 367.656 180.164 366.846 180.753C366.037 181.342 365.657 182.261 365.317 183.121C364.977 183.98 364.737 186.027 364.737 186.027Z" fill="white"/>
<path d="M350.994 198.285C350.994 198.285 348.455 191.492 348.595 188.994C348.735 186.497 350.524 184.639 350.524 184.639L352.433 182.851C352.433 182.851 353.882 188.365 354.112 189.594C354.642 191.312 354.162 193.13 354.162 193.13C354.162 193.13 353.543 195.068 353.033 195.917C352.503 196.746 350.994 198.285 350.994 198.285Z" fill="white"/>
<path d="M343.147 205.387C343.147 205.387 339.929 197.555 340.009 194.708C340.089 191.861 342.128 189.813 342.128 189.813L344.307 187.846C344.307 187.846 346.196 194.179 346.506 195.587C347.186 197.565 346.686 199.613 346.686 199.613C346.686 199.613 346.026 201.801 345.456 202.74C344.867 203.689 343.147 205.387 343.147 205.387Z" fill="white"/>
<path d="M335.491 212.479C335.491 212.479 331.573 204.048 331.513 201.032C331.463 198.005 333.612 195.877 333.612 195.877L335.521 193.39C335.521 193.39 338.3 200.632 338.71 202.14C339.559 204.268 339.099 206.436 339.099 206.436C339.099 206.436 338.48 208.753 337.89 209.732C337.31 210.721 335.491 212.479 335.491 212.479Z" fill="white"/>
<path d="M326.765 220.461C326.765 220.461 322.707 211.481 322.687 208.244C322.667 205.007 324.966 202.69 324.966 202.69L327.285 199.843C327.285 199.843 329.874 207.735 330.294 209.353C331.173 211.62 330.653 213.948 330.653 213.948C330.653 213.948 329.974 216.435 329.334 217.494C328.694 218.553 326.765 220.461 326.765 220.461Z" fill="white"/>
<path d="M317.709 228.712C317.709 228.712 313.172 218.813 313.132 215.257C313.092 211.7 315.62 209.173 315.62 209.173L318.169 206.056C318.169 206.056 321.078 214.747 321.548 216.525C322.527 219.023 321.967 221.58 321.967 221.58C321.967 221.58 321.228 224.307 320.538 225.476C319.838 226.625 317.709 228.712 317.709 228.712Z" fill="white"/>
<path d="M308.494 237.843C308.494 237.843 303.586 227.204 303.526 223.388C303.476 219.562 306.185 216.865 306.185 216.865L308.924 213.528C308.924 213.528 312.082 222.869 312.592 224.776C313.651 227.464 313.062 230.201 313.062 230.201C313.062 230.201 312.272 233.128 311.532 234.376C310.783 235.605 308.494 237.843 308.494 237.843Z" fill="white"/>
<path d="M358.44 192.561C358.44 192.561 365.427 193.929 367.816 193.36C370.195 192.78 371.674 190.663 371.674 190.663L373.063 188.435C373.063 188.435 367.496 187.945 366.277 187.926C365.047 187.916 363.858 188.245 362.868 188.495C361.879 188.745 361.109 189.454 360.379 190.113C359.66 190.772 358.44 192.561 358.44 192.561Z" fill="white"/>
<path d="M351.454 198.814C351.454 198.814 357.801 202.1 360.249 202.21C362.698 202.33 364.687 200.702 364.687 200.702L366.626 198.944C366.626 198.944 361.409 196.906 360.239 196.546C358.62 195.827 356.811 196.137 356.811 196.137C356.811 196.137 354.852 196.566 353.982 196.996C353.113 197.435 351.454 198.814 351.454 198.814Z" fill="white"/>
<path d="M343.737 206.056C343.737 206.056 351.034 210.132 353.802 210.352C356.571 210.572 358.79 208.704 358.79 208.704L360.929 206.696C360.929 206.696 354.962 204.118 353.623 203.659C351.763 202.76 349.724 203.069 349.724 203.069C349.724 203.069 347.525 203.509 346.546 203.998C345.566 204.478 343.737 206.056 343.737 206.056Z" fill="white"/>
<path d="M336.041 213.109C336.041 213.109 343.837 217.964 346.776 218.323C349.714 218.683 352.013 216.725 352.013 216.725L354.632 215.037C354.632 215.037 347.865 211.461 346.446 210.891C344.467 209.812 342.308 210.062 342.308 210.062C342.308 210.062 339.989 210.452 338.969 210.951C337.95 211.451 336.041 213.109 336.041 213.109Z" fill="white"/>
<path d="M327.385 221.16C327.385 221.16 335.711 226.215 338.859 226.565C342.008 226.914 344.497 224.816 344.497 224.816L347.515 222.749C347.515 222.749 340.099 219.302 338.57 218.713C336.451 217.594 334.132 217.874 334.132 217.874C334.132 217.874 331.643 218.313 330.543 218.843C329.444 219.372 327.385 221.16 327.385 221.16Z" fill="white"/>
<path d="M318.419 229.521C318.419 229.521 327.585 235.155 331.043 235.565C334.502 235.975 337.22 233.667 337.22 233.667L340.519 231.399C340.519 231.399 332.363 227.544 330.683 226.884C328.354 225.636 325.816 225.935 325.816 225.935C325.816 225.935 323.077 226.405 321.877 226.994C320.668 227.564 318.419 229.521 318.419 229.521Z" fill="white"/>
<path d="M308.584 237.943C308.584 237.943 318.429 244.026 322.147 244.476C325.866 244.925 328.774 242.448 328.774 242.448L332.313 240.01C332.313 240.01 323.547 235.835 321.748 235.126C319.249 233.767 316.52 234.087 316.52 234.087C316.52 234.087 313.591 234.586 312.302 235.215C311.013 235.845 308.584 237.943 308.584 237.943Z" fill="white"/>
<path d="M298.159 247.462C298.778 248.162 299.848 248.222 300.528 247.592L366.896 184.949C367.586 184.319 368.066 183.85 367.666 183.4C367.286 182.971 366.686 183.38 365.997 184.01L298.279 245.035C297.589 245.674 297.539 246.763 298.159 247.462Z" fill="white"/>
<path d="M330.463 166.988C330.463 166.988 329.234 162.213 329.504 160.534C329.774 158.856 331.113 157.737 331.113 157.737L332.532 156.679C332.532 156.679 333.122 160.505 333.182 161.354C333.252 162.203 333.082 163.042 332.962 163.741C332.842 164.44 332.413 165.01 332.003 165.539C331.593 166.069 330.463 166.988 330.463 166.988Z" fill="white"/>
<path d="M334.452 162.283C334.452 162.283 339.219 160.495 340.379 159.326C341.538 158.157 341.468 156.479 341.468 156.479L341.298 154.781C341.298 154.781 337.77 156.529 337.04 156.958C336.301 157.398 335.751 158.007 335.271 158.497C334.791 158.986 334.651 159.645 334.521 160.265C334.372 160.884 334.452 162.283 334.452 162.283Z" fill="white"/>
<path d="M326.645 172.112C326.645 172.112 324.176 167.867 323.986 166.178C323.797 164.49 324.786 163.032 324.786 163.032L325.856 161.613C325.856 161.613 327.445 165.13 327.745 165.929C328.294 167.018 328.174 168.286 328.174 168.286C328.174 168.286 327.985 169.655 327.735 170.284C327.475 170.904 326.645 172.112 326.645 172.112Z" fill="white"/>
<path d="M322.197 177.796C322.197 177.796 319.159 172.931 318.889 171.023C318.619 169.115 319.748 167.497 319.748 167.497L320.978 165.919C320.978 165.919 322.957 169.935 323.327 170.844C324.006 172.082 323.897 173.521 323.897 173.521C323.897 173.521 323.707 175.069 323.427 175.758C323.157 176.458 322.197 177.796 322.197 177.796Z" fill="white"/>
<path d="M317.879 183.45C317.879 183.45 314.301 178.276 313.921 176.258C313.541 174.24 314.741 172.562 314.741 172.562L315.74 170.674C315.74 170.674 318.419 175.189 318.869 176.148C319.678 177.467 319.609 178.975 319.609 178.975C319.609 178.975 319.459 180.593 319.179 181.322C318.899 182.052 317.879 183.45 317.879 183.45Z" fill="white"/>
<path d="M312.952 189.823C312.952 189.823 309.223 184.299 308.834 182.132C308.454 179.964 309.733 178.146 309.733 178.146L310.963 175.968C310.963 175.968 313.591 180.943 314.051 181.972C314.891 183.38 314.811 184.999 314.811 184.999C314.811 184.999 314.641 186.747 314.331 187.526C314.031 188.315 312.952 189.823 312.952 189.823Z" fill="white"/>
<path d="M307.824 196.417C307.824 196.417 303.666 190.333 303.236 187.955C302.806 185.578 304.206 183.59 304.206 183.59L305.555 181.203C305.555 181.203 308.484 186.667 309.004 187.806C309.943 189.364 309.863 191.132 309.863 191.132C309.863 191.132 309.683 193.05 309.343 193.909C309.004 194.768 307.824 196.417 307.824 196.417Z" fill="white"/>
<path d="M302.697 203.609C302.697 203.609 298.209 197.076 297.739 194.528C297.269 191.981 298.778 189.843 298.778 189.843L300.228 187.286C300.228 187.286 303.396 193.16 303.956 194.379C304.965 196.047 304.885 197.955 304.885 197.955C304.885 197.955 304.696 200.013 304.336 200.932C303.976 201.851 302.697 203.609 302.697 203.609Z" fill="white"/>
<path d="M330.973 167.407C330.973 167.407 335.801 167.497 337.33 166.828C338.859 166.159 339.609 164.56 339.609 164.56L340.289 162.902C340.289 162.902 336.511 163.232 335.691 163.361C334.871 163.501 334.112 163.861 333.472 164.151C332.832 164.43 332.403 165 331.993 165.529C331.593 166.069 330.973 167.407 330.973 167.407Z" fill="white"/>
<path d="M327.015 172.412C327.015 172.412 331.633 173.86 333.282 173.641C334.931 173.431 336.081 172.102 336.081 172.102L337.18 170.704C337.18 170.704 333.462 169.954 332.632 169.855C331.473 169.565 330.294 169.984 330.294 169.984C330.294 169.984 329.034 170.504 328.504 170.894C327.965 171.293 327.015 172.412 327.015 172.412Z" fill="white"/>
<path d="M322.667 178.176C322.667 178.176 328.005 180.044 329.894 179.854C331.773 179.674 333.042 178.166 333.042 178.166L334.242 176.567C334.242 176.567 329.954 175.549 329.004 175.399C327.665 175.019 326.325 175.469 326.325 175.469C326.325 175.469 324.906 176.028 324.306 176.468C323.717 176.907 322.667 178.176 322.667 178.176Z" fill="white"/>
<path d="M318.319 183.8C318.319 183.8 324.086 186.127 326.095 186.017C328.105 185.908 329.414 184.329 329.414 184.329L330.973 182.891C330.973 182.891 326.045 181.302 325.026 181.083C323.577 180.593 322.167 181.013 322.167 181.013C322.167 181.013 320.658 181.552 320.038 182.002C319.409 182.461 318.319 183.8 318.319 183.8Z" fill="white"/>
<path d="M313.441 190.213C313.441 190.213 319.579 192.611 321.728 192.471C323.877 192.331 325.306 190.633 325.306 190.633L327.085 188.894C327.085 188.894 321.738 187.466 320.648 187.256C319.109 186.757 317.589 187.216 317.589 187.216C317.589 187.216 315.97 187.806 315.301 188.295C314.631 188.785 313.441 190.213 313.441 190.213Z" fill="white"/>
<path d="M308.394 196.866C308.394 196.866 315.161 199.543 317.52 199.413C319.878 199.274 321.438 197.405 321.438 197.405L323.387 195.497C323.387 195.497 317.49 193.889 316.29 193.639C314.591 193.08 312.922 193.58 312.922 193.58C312.922 193.58 311.142 194.219 310.403 194.748C309.673 195.288 308.394 196.866 308.394 196.866Z" fill="white"/>
<path d="M302.766 203.669C302.766 203.669 310.043 206.576 312.582 206.436C315.121 206.296 316.78 204.288 316.78 204.288L318.869 202.24C318.869 202.24 312.532 200.482 311.242 200.222C309.413 199.613 307.624 200.153 307.624 200.153C307.624 200.153 305.715 200.832 304.925 201.411C304.146 201.981 302.766 203.669 302.766 203.669Z" fill="white"/>
<path d="M296.869 211.271C297.359 211.67 298.079 211.58 298.469 211.071L335.761 161.304C336.151 160.804 336.421 160.435 336.101 160.175C335.791 159.935 335.441 160.275 335.051 160.784L296.669 209.632C296.29 210.142 296.379 210.881 296.869 211.271Z" fill="white"/>
<rect width="7.99616" height="11.5813" transform="matrix(0.992056 0.125795 -0.12594 0.992038 394.042 109.618)" fill="#83BB21"/>
<rect x="172.888" y="141.585" width="118.944" height="139.852" fill="#83BB21"/>
<path d="M184.457 236.051C183.432 236.674 182.8 237.823 182.8 239.066V255.532C182.8 256.779 183.437 257.932 184.469 258.553L213.886 276.26C215.525 277.247 217.542 277.247 219.181 276.26L233.4 267.702L247.618 276.26C249.257 277.247 251.274 277.247 252.913 276.26L282.33 258.553C283.363 257.932 283.999 256.779 283.999 255.532V239.066C283.999 237.823 283.368 236.674 282.342 236.051L268.799 227.824C267.768 227.198 266.497 227.198 265.466 227.824L251.599 236.248C250.774 236.749 249.757 236.749 248.933 236.248C244.31 233.44 239.689 230.632 235.067 227.824C234.036 227.198 232.764 227.198 231.733 227.824C227.11 230.632 222.489 233.44 217.867 236.248C217.042 236.749 216.025 236.749 215.201 236.248L201.333 227.824C200.303 227.198 199.031 227.198 198.001 227.824L184.457 236.051Z" fill="#CB2712"/>
<path d="M184.457 228.413C183.432 229.037 182.8 230.185 182.8 231.428V247.894C182.8 249.142 183.436 250.294 184.469 250.916L213.886 268.622C215.525 269.609 217.542 269.609 219.181 268.622L233.4 260.064L247.618 268.622C249.257 269.609 251.274 269.609 252.913 268.622L282.33 250.916C283.363 250.294 283.999 249.142 283.999 247.894V231.428C283.999 230.185 283.367 229.037 282.342 228.413L268.799 220.187C267.768 219.561 266.497 219.561 265.466 220.187L251.599 228.61C250.774 229.111 249.757 229.111 248.933 228.61C244.31 225.803 239.689 222.994 235.066 220.187C234.035 219.56 232.764 219.56 231.733 220.187C227.11 222.994 222.489 225.803 217.866 228.61C217.042 229.111 216.025 229.111 215.2 228.61L201.333 220.187C200.302 219.561 199.031 219.561 198 220.187L184.457 228.413Z" fill="#FB2E13"/>
<path d="M191.923 235.995H196.63V241.376H198.485C199.553 241.376 200.464 241.513 201.219 241.786C201.981 242.053 202.57 242.493 202.987 243.104C203.404 243.716 203.612 244.524 203.612 245.526V245.614C203.612 246.675 203.404 247.532 202.987 248.183C202.577 248.827 202.001 249.293 201.259 249.579C200.516 249.859 199.624 249.999 198.583 249.999H191.923V235.995ZM197.606 247.079C198.036 247.079 198.365 246.975 198.593 246.767C198.827 246.552 198.944 246.21 198.944 245.741V245.536C198.944 245.237 198.892 244.996 198.788 244.813C198.69 244.625 198.544 244.488 198.348 244.403C198.16 244.319 197.928 244.276 197.655 244.276H196.63V247.079H197.606ZM192.479 235.995H202.548V239.462H192.479V235.995Z" fill="white"/>
<path d="M209.882 250.292C208.755 250.292 207.762 250.097 206.903 249.706C206.05 249.315 205.38 248.726 204.891 247.938C204.41 247.151 204.169 246.181 204.169 245.028V244.11C204.169 242.971 204.41 242.011 204.891 241.229C205.38 240.448 206.053 239.866 206.913 239.481C207.772 239.097 208.762 238.905 209.882 238.905C211.001 238.905 211.991 239.097 212.85 239.481C213.71 239.866 214.384 240.448 214.872 241.229C215.36 242.011 215.604 242.971 215.604 244.11V245.028C215.604 246.181 215.36 247.151 214.872 247.938C214.39 248.726 213.719 249.315 212.86 249.706C212.001 250.097 211.008 250.292 209.882 250.292ZM209.882 247.46C210.142 247.46 210.357 247.395 210.526 247.265C210.702 247.128 210.829 246.926 210.907 246.659C210.992 246.386 211.034 246.044 211.034 245.634V243.534C211.034 243.137 210.992 242.805 210.907 242.538C210.822 242.271 210.695 242.073 210.526 241.942C210.357 241.806 210.142 241.737 209.882 241.737C209.621 241.737 209.406 241.806 209.237 241.942C209.068 242.073 208.941 242.271 208.856 242.538C208.778 242.805 208.739 243.137 208.739 243.534V245.634C208.739 246.044 208.778 246.386 208.856 246.659C208.941 246.926 209.068 247.128 209.237 247.265C209.406 247.395 209.621 247.46 209.882 247.46Z" fill="white"/>
<path d="M216.757 239.198H221.161V242.997H222.86V239.198H227.264V249.999H222.86V245.946H221.161V249.999H216.757V239.198Z" fill="white"/>
<path d="M231.805 251.112C231.871 250.852 231.89 250.621 231.864 250.419C231.838 250.224 231.731 250.054 231.542 249.911C231.353 249.768 231.063 249.664 230.673 249.599L227.899 239.198H232.343L234.53 249.267H232.889L235.145 239.198H239.53L235.77 253.163H231.259L231.805 251.112Z" fill="white"/>
<path d="M245.116 250.282C243.99 250.282 243.003 250.09 242.157 249.706C241.311 249.322 240.65 248.743 240.175 247.968C239.706 247.193 239.471 246.229 239.471 245.077V244.11C239.471 242.965 239.712 242.004 240.194 241.229C240.682 240.448 241.353 239.866 242.206 239.481C243.065 239.097 244.055 238.905 245.175 238.905C246.301 238.905 247.274 239.081 248.094 239.433C248.921 239.778 249.563 240.285 250.018 240.956C250.481 241.627 250.728 242.44 250.76 243.397H246.249V243.212C246.242 242.717 246.158 242.346 245.995 242.099C245.839 241.851 245.581 241.728 245.223 241.728C244.95 241.728 244.725 241.799 244.55 241.942C244.38 242.086 244.253 242.307 244.169 242.606C244.091 242.906 244.052 243.3 244.052 243.788V245.399C244.052 245.888 244.091 246.282 244.169 246.581C244.247 246.881 244.371 247.102 244.54 247.245C244.709 247.382 244.93 247.45 245.204 247.45C245.555 247.45 245.816 247.317 245.985 247.05C246.161 246.776 246.255 246.382 246.268 245.868V245.683H250.809C250.777 246.692 250.52 247.541 250.038 248.231C249.563 248.915 248.902 249.429 248.055 249.774C247.216 250.113 246.236 250.282 245.116 250.282Z" fill="white"/>
<path d="M257.186 250.292C256.06 250.292 255.067 250.097 254.208 249.706C253.355 249.315 252.684 248.726 252.196 247.938C251.714 247.151 251.473 246.181 251.473 245.028V244.11C251.473 242.971 251.714 242.011 252.196 241.229C252.684 240.448 253.358 239.866 254.218 239.481C255.077 239.097 256.066 238.905 257.186 238.905C258.306 238.905 259.296 239.097 260.155 239.481C261.014 239.866 261.688 240.448 262.177 241.229C262.665 242.011 262.909 242.971 262.909 244.11V245.028C262.909 246.181 262.665 247.151 262.177 247.938C261.695 248.726 261.024 249.315 260.165 249.706C259.305 250.097 258.313 250.292 257.186 250.292ZM257.186 247.46C257.447 247.46 257.662 247.395 257.831 247.265C258.007 247.128 258.134 246.926 258.212 246.659C258.296 246.386 258.339 246.044 258.339 245.634V243.534C258.339 243.137 258.296 242.805 258.212 242.538C258.127 242.271 258 242.073 257.831 241.942C257.662 241.806 257.447 241.737 257.186 241.737C256.926 241.737 256.711 241.806 256.542 241.942C256.372 242.073 256.246 242.271 256.161 242.538C256.083 242.805 256.044 243.137 256.044 243.534V245.634C256.044 246.044 256.083 246.386 256.161 246.659C256.246 246.926 256.372 247.128 256.542 247.265C256.711 247.395 256.926 247.46 257.186 247.46Z" fill="white"/>
<path d="M264.061 239.198H270.341C271.18 239.198 271.887 239.293 272.46 239.481C273.033 239.67 273.466 239.96 273.759 240.351C274.052 240.735 274.198 241.22 274.198 241.806C274.198 242.353 274.068 242.825 273.807 243.222C273.547 243.619 273.182 243.925 272.714 244.14C272.251 244.354 271.721 244.472 271.122 244.491L271.171 244.179C271.796 244.211 272.356 244.325 272.85 244.521C273.345 244.716 273.739 245.019 274.032 245.429C274.331 245.832 274.481 246.347 274.481 246.972C274.481 247.707 274.299 248.3 273.934 248.749C273.576 249.192 273.068 249.511 272.411 249.706C271.753 249.901 270.959 249.999 270.028 249.999H264.061V239.198ZM268.827 247.802C269.224 247.802 269.527 247.711 269.735 247.528C269.943 247.346 270.048 247.06 270.048 246.669V246.571C270.048 246.226 269.943 245.969 269.735 245.8C269.533 245.631 269.244 245.546 268.866 245.546H268.466V247.802H268.827ZM268.866 243.339C269.218 243.339 269.491 243.254 269.686 243.085C269.882 242.916 269.979 242.662 269.979 242.323V242.284C269.979 241.972 269.882 241.747 269.686 241.61C269.497 241.467 269.231 241.396 268.885 241.396H268.466V243.339H268.866Z" fill="white"/>
<path d="M207.86 207.585C205.503 207.585 203.466 207.253 201.747 206.589C200.028 205.912 198.7 204.89 197.762 203.522C196.825 202.155 196.356 200.45 196.356 198.405H205.751V198.796C205.751 199.694 205.927 200.404 206.278 200.925C206.63 201.433 207.144 201.687 207.821 201.687C208.29 201.687 208.68 201.556 208.993 201.296C209.305 201.035 209.54 200.658 209.696 200.163C209.852 199.655 209.93 199.03 209.93 198.288V196.55C209.93 195.743 209.846 195.085 209.677 194.577C209.52 194.069 209.273 193.698 208.934 193.464C208.609 193.229 208.199 193.112 207.704 193.112C207.04 193.112 206.499 193.327 206.083 193.757C205.666 194.174 205.419 194.74 205.341 195.456H197.001V178.991H218.192V185.046H205.77V192.487L205.302 191.14C205.588 190.424 206.044 189.785 206.669 189.226C207.294 188.653 208.062 188.203 208.973 187.878C209.898 187.552 210.913 187.39 212.02 187.39C213.413 187.39 214.663 187.735 215.77 188.425C216.89 189.102 217.775 190.098 218.427 191.413C219.078 192.715 219.403 194.265 219.403 196.062V197.468C219.403 199.812 218.921 201.732 217.958 203.229C216.994 204.727 215.653 205.827 213.934 206.53C212.216 207.233 210.191 207.585 207.86 207.585Z" fill="white"/>
<path d="M232.899 207.585C230.477 207.585 228.4 207.149 226.669 206.276C224.937 205.404 223.602 204.076 222.665 202.292C221.727 200.495 221.259 198.249 221.259 195.554V189.929C221.259 187.364 221.734 185.228 222.684 183.522C223.635 181.804 224.976 180.528 226.708 179.694C228.453 178.848 230.516 178.425 232.899 178.425C235.282 178.425 237.339 178.848 239.071 179.694C240.803 180.541 242.144 181.843 243.094 183.601C244.045 185.358 244.52 187.572 244.52 190.241V195.554C244.52 198.249 244.052 200.495 243.114 202.292C242.177 204.076 240.842 205.404 239.11 206.276C237.378 207.149 235.308 207.585 232.899 207.585ZM232.899 201.413C233.459 201.413 233.895 201.25 234.208 200.925C234.533 200.586 234.761 200.118 234.891 199.519C235.022 198.92 235.087 198.184 235.087 197.312V188.503C235.087 187.67 235.015 186.966 234.872 186.394C234.742 185.821 234.514 185.378 234.188 185.065C233.876 184.753 233.446 184.597 232.899 184.597C232.352 184.597 231.916 184.753 231.591 185.065C231.278 185.378 231.05 185.821 230.907 186.394C230.777 186.966 230.712 187.67 230.712 188.503V197.312C230.712 198.184 230.777 198.92 230.907 199.519C231.037 200.118 231.265 200.586 231.591 200.925C231.916 201.25 232.352 201.413 232.899 201.413Z" fill="white"/>
<path d="M258.016 207.585C255.594 207.585 253.518 207.149 251.786 206.276C250.054 205.404 248.719 204.076 247.782 202.292C246.844 200.495 246.376 198.249 246.376 195.554V189.929C246.376 187.364 246.851 185.228 247.802 183.522C248.752 181.804 250.093 180.528 251.825 179.694C253.57 178.848 255.634 178.425 258.016 178.425C260.399 178.425 262.456 178.848 264.188 179.694C265.92 180.541 267.261 181.843 268.212 183.601C269.162 185.358 269.637 187.572 269.637 190.241V195.554C269.637 198.249 269.169 200.495 268.231 202.292C267.294 204.076 265.959 205.404 264.227 206.276C262.496 207.149 260.425 207.585 258.016 207.585ZM258.016 201.413C258.576 201.413 259.012 201.25 259.325 200.925C259.65 200.586 259.878 200.118 260.009 199.519C260.139 198.92 260.204 198.184 260.204 197.312V188.503C260.204 187.67 260.132 186.966 259.989 186.394C259.859 185.821 259.631 185.378 259.305 185.065C258.993 184.753 258.563 184.597 258.016 184.597C257.469 184.597 257.033 184.753 256.708 185.065C256.395 185.378 256.167 185.821 256.024 186.394C255.894 186.966 255.829 187.67 255.829 188.503V197.312C255.829 198.184 255.894 198.92 256.024 199.519C256.154 200.118 256.382 200.586 256.708 200.925C257.033 201.25 257.469 201.413 258.016 201.413Z" fill="white"/>
</g>
<defs>
<clipPath id="clip0_3_33695">
<rect width="462" height="331" fill="white"/>
</clipPath>
</defs>
</svg>
