<svg width="180" height="190" viewBox="0 0 180 190" fill="none" xmlns="http://www.w3.org/2000/svg">
<path fill-rule="evenodd" clip-rule="evenodd" d="M96.2253 156.778C113.044 147.03 156.111 119.398 163.472 88.2251C170.119 60.0765 153.249 30.8292 124.681 30.4089C124.091 30.4002 123.493 30.3958 122.886 30.3958C111.385 30.3958 101.118 36.1401 95.0989 40.387C91.8105 42.7071 87.1894 42.7071 83.901 40.387C77.8818 36.1401 67.6147 30.3958 56.1143 30.3958C55.507 30.3958 54.9086 30.4002 54.3189 30.4089C25.7508 30.8292 8.88038 60.0765 15.5277 88.2251C22.8893 119.398 65.9556 147.03 82.7746 156.778C86.9754 159.213 92.0244 159.213 96.2253 156.778ZM102.529 62.9615C101.891 60.4088 99.5766 58.6333 96.9458 58.6779C94.3149 58.7225 92.0622 60.5753 91.5109 63.1482L84.8152 94.3945L79.8343 77.7913C79.1679 75.5702 77.2133 73.9808 74.903 73.7814C72.5926 73.5819 70.3946 74.813 69.3575 76.8871L63.3792 88.8437H51.7916C48.6677 88.8437 46.1353 91.3761 46.1353 94.5C46.1353 97.6238 48.6677 100.156 51.7916 100.156H66.8749C69.0174 100.156 70.9759 98.9458 71.934 97.0295L73.0972 94.7031L80.3114 118.75C81.0534 121.224 83.3762 122.88 85.9563 122.777C88.5364 122.673 90.7187 120.835 91.2598 118.31L97.4655 89.3502L99.0959 95.8718C99.7254 98.3898 101.988 100.156 104.583 100.156H127.208C130.332 100.156 132.865 97.6238 132.865 94.5C132.865 91.3761 130.332 88.8437 127.208 88.8437H109L102.529 62.9615Z" fill="#EBEBEB"/>
</svg>
